<?xml version="1.0" standalone="no"?>
<!DOCTYPE svg PUBLIC "-//W3C//DTD SVG 20010904//EN"
 "http://www.w3.org/TR/2001/REC-SVG-20010904/DTD/svg10.dtd">
<svg version="1.0" xmlns="http://www.w3.org/2000/svg"
 width="300.000000pt" height="136.000000pt" viewBox="0 0 300.000000 136.000000"
 preserveAspectRatio="xMidYMid meet">
<metadata>
Created by potrace 1.10, written by Peter Selinger 2001-2011
</metadata>
<g transform="translate(0.000000,136.000000) scale(0.100000,-0.100000)"
fill="#ffffff" stroke="none">
<path d="M591 1334 c-136 -36 -300 -161 -363 -276 -63 -114 -94 -245 -81 -345
l8 -58 6 85 c3 47 14 113 24 146 l17 62 35 -22 c19 -11 58 -43 85 -69 56 -54
66 -93 41 -156 -7 -18 -13 -37 -13 -42 0 -17 40 -9 78 15 20 13 63 29 95 35
78 17 75 35 -14 94 -54 35 -81 47 -109 47 -33 0 -41 4 -54 32 -9 17 -16 37
-16 44 0 8 -11 12 -26 11 -34 -3 -53 25 -35 47 19 23 67 20 91 -6 17 -18 20
-19 20 -5 0 9 8 25 18 35 9 9 28 32 40 50 20 28 29 32 68 32 41 0 57 11 34 25
-21 13 -9 25 24 25 45 0 52 14 27 46 -27 35 -26 50 4 70 14 9 25 24 25 34 0
19 -5 18 188 34 34 3 62 2 62 -2 0 -4 14 -8 30 -9 17 -1 57 -14 90 -29 59 -26
59 -26 42 -50 -9 -13 -37 -32 -62 -43 -25 -11 -58 -33 -74 -50 -17 -17 -38
-31 -48 -31 -24 0 -23 6 7 38 30 32 32 74 5 112 -11 15 -17 30 -14 33 3 3 3
11 -1 17 -5 8 -11 5 -20 -7 -11 -15 -10 -22 11 -46 33 -39 31 -73 -6 -105 -16
-15 -30 -30 -30 -34 0 -4 13 -14 30 -23 29 -15 31 -15 73 24 24 22 61 46 83
53 23 8 43 22 49 36 5 12 13 22 18 22 17 0 173 -166 186 -197 14 -33 26 -39
49 -25 17 12 -50 112 -119 179 -120 115 -245 163 -417 162 -60 0 -131 -7 -161
-15z m12 -30 c-3 -9 -17 -27 -29 -40 -25 -24 -31 -58 -13 -70 8 -4 7 -9 -2
-15 -11 -7 -9 -9 6 -10 13 -1 9 -4 -10 -8 -18 -3 -34 -15 -40 -29 -7 -15 -18
-22 -37 -22 -19 0 -33 -10 -50 -32 -46 -66 -49 -68 -95 -61 -48 6 -89 -13 -95
-46 -2 -15 -7 -18 -17 -12 -12 8 -11 15 4 48 34 72 74 122 162 203 45 41 122
79 220 109 1 1 0 -6 -4 -15z m-145 -493 c20 -11 50 -31 66 -44 l30 -24 -67
-22 c-37 -13 -69 -27 -72 -32 -4 -5 -13 -9 -22 -9 -10 0 -13 5 -8 18 9 22 10
106 1 121 -11 18 31 13 72 -8z"/>
<path d="M1348 943 c-10 -2 -18 -12 -18 -21 0 -13 -2 -14 -9 -3 -7 11 -26 7
-99 -18 l-91 -31 -178 29 c-147 24 -182 26 -202 16 -22 -11 -16 -14 83 -50
146 -52 151 -57 80 -79 l-57 -18 -44 31 c-56 40 -65 39 -47 -4 22 -53 20 -55
-53 -50 l-68 4 55 -11 c30 -6 58 -16 61 -21 4 -6 48 -7 110 -4 87 5 127 13
244 51 265 87 345 125 345 163 0 12 -8 15 -40 10 -23 -3 -38 -1 -34 4 5 9 -8
10 -38 2z m-38 -33 c0 -5 -5 -10 -11 -10 -5 0 -7 5 -4 10 3 6 8 10 11 10 2 0
4 -4 4 -10z m79 1 c10 -7 8 -12 -10 -25 -13 -9 -28 -16 -34 -16 -5 0 -21 -6
-35 -13 -14 -7 -47 -19 -75 -27 -27 -7 -72 -24 -100 -37 -27 -13 -61 -25 -75
-27 -14 -2 -47 -9 -74 -15 -75 -18 -186 -24 -186 -11 0 16 28 24 43 12 15 -12
111 18 135 42 14 14 14 17 -2 35 -10 11 -31 23 -47 26 -16 4 -29 10 -29 14 0
11 43 11 79 -1 19 -6 71 -12 117 -13 45 -2 87 -6 92 -9 5 -3 26 1 46 9 20 8
38 15 41 16 17 1 75 31 75 39 0 12 20 13 39 1z m-129 -21 c0 -5 -4 -10 -10
-10 -5 0 -10 5 -10 10 0 6 5 10 10 10 6 0 10 -4 10 -10z m-50 -20 c0 -5 -4
-10 -10 -10 -5 0 -10 5 -10 10 0 6 5 10 10 10 6 0 10 -4 10 -10z"/>
<path d="M1933 919 c-37 -14 -31 -56 12 -76 37 -18 45 -40 19 -50 -11 -4 -23
2 -34 17 -9 12 -20 18 -23 13 -12 -19 19 -46 51 -46 70 0 83 52 22 83 -22 11
-40 25 -40 31 0 18 31 22 49 5 20 -19 35 -9 21 14 -10 16 -47 21 -77 9z"/>
<path d="M1578 908 c7 -7 12 -33 12 -58 0 -25 -5 -51 -12 -58 -9 -9 2 -12 49
-12 53 0 64 3 77 22 22 30 20 81 -2 101 -23 21 -144 25 -124 5z m100 -30 c17
-35 -2 -83 -33 -83 -17 0 -20 8 -23 58 -3 56 -2 58 20 55 13 -2 28 -15 36 -30z"/>
<path d="M1745 850 l0 -70 50 0 c28 0 55 4 61 8 38 25 40 103 4 122 -10 6 -40
10 -67 10 l-48 0 0 -70z m95 41 c22 -43 2 -101 -36 -101 -11 0 -14 15 -14 60
0 53 2 60 20 60 10 0 24 -9 30 -19z"/>
<path d="M1108 753 c-27 -8 -48 -20 -48 -28 0 -7 -3 -20 -6 -28 -10 -28 31 -8
72 34 21 21 36 39 34 38 -3 -1 -26 -8 -52 -16z"/>
<path d="M1575 690 c-3 -5 -1 -10 4 -10 7 0 11 -23 11 -55 0 -30 -4 -55 -10
-55 -5 0 -10 -5 -10 -10 0 -7 24 -10 63 -8 58 3 62 5 65 28 2 22 1 23 -8 8 -7
-11 -23 -18 -40 -18 -25 0 -30 4 -30 25 0 27 18 33 38 13 9 -9 12 -5 12 21 0
30 -1 31 -16 17 -19 -19 -34 -12 -34 15 0 14 7 19 30 19 17 0 30 -5 30 -11 0
-5 4 -8 10 -4 5 3 7 12 3 20 -6 17 -108 21 -118 5z"/>
<path d="M1735 675 c-30 -30 -32 -64 -4 -99 29 -37 109 -35 109 2 0 12 -3 13
-12 4 -16 -16 -53 -15 -67 2 -7 8 -11 32 -9 53 2 31 7 39 27 41 13 2 28 -1 34
-7 15 -15 27 -14 27 3 0 14 -29 26 -63 26 -10 0 -29 -11 -42 -25z"/>
<path d="M1880 680 c-44 -44 -13 -130 48 -130 60 0 95 56 68 109 -24 46 -81
56 -116 21z m75 -24 c23 -34 16 -80 -12 -84 -39 -6 -70 67 -41 96 18 18 36 14
53 -12z"/>
<path d="M2025 690 c-3 -5 -1 -10 4 -10 7 0 11 -23 11 -55 0 -30 -4 -55 -10
-55 -5 0 -10 -4 -10 -10 0 -5 11 -10 25 -10 27 0 32 9 14 27 -6 6 -9 26 -7 44
l4 34 22 -47 c12 -27 24 -48 27 -48 3 0 16 21 28 48 l22 47 3 -40 c2 -22 -1
-41 -7 -43 -22 -7 -10 -22 17 -22 l27 0 0 75 c0 64 -2 75 -17 75 -11 0 -27
-19 -42 -47 l-24 -48 -22 48 c-20 46 -49 62 -65 37z"/>
<path d="M2220 691 c0 -6 5 -13 11 -17 10 -6 5 -76 -8 -110 -3 -9 2 -14 14
-14 18 0 20 6 16 53 l-4 52 27 -50 27 -50 24 50 24 50 -4 -52 c-4 -53 -4 -53
24 -53 29 0 38 13 19 25 -15 9 -13 105 2 105 9 0 9 3 1 11 -18 18 -40 3 -64
-43 l-23 -43 -20 48 c-15 37 -25 47 -43 47 -13 0 -23 -4 -23 -9z"/>
<path d="M2415 690 c-3 -5 -1 -10 4 -10 7 0 11 -23 11 -55 0 -30 -4 -55 -10
-55 -5 0 -10 -5 -10 -10 0 -7 24 -10 63 -8 58 3 62 5 65 28 2 22 1 23 -8 8 -7
-11 -23 -18 -40 -18 -25 0 -30 4 -30 25 0 27 18 33 38 13 9 -9 12 -5 12 21 0
30 -1 31 -16 17 -19 -19 -34 -12 -34 15 0 14 7 19 29 19 16 0 32 -6 34 -12 3
-7 6 -3 6 10 1 20 -3 22 -53 22 -30 0 -58 -4 -61 -10z"/>
<path d="M2550 691 c0 -6 5 -13 10 -16 6 -3 10 -26 10 -50 0 -24 -4 -47 -10
-50 -20 -12 -10 -25 19 -25 28 0 29 2 24 35 -4 23 -2 35 6 35 7 0 19 -16 27
-35 9 -23 21 -35 34 -35 25 0 25 1 0 44 -11 21 -15 38 -10 41 16 10 11 52 -6
59 -25 10 -104 7 -104 -3z m85 -36 c0 -11 -8 -21 -17 -23 -14 -3 -18 3 -18 23
0 20 4 26 18 23 9 -2 17 -12 17 -23z"/>
<path d="M2730 680 c-42 -42 -14 -130 43 -130 39 0 67 12 67 27 0 12 -3 13
-14 3 -39 -31 -96 19 -82 73 5 21 12 27 34 27 15 0 33 -5 40 -12 14 -14 25 -6
17 14 -9 23 -80 23 -105 -2z"/>
<path d="M2856 683 c10 -23 11 -82 1 -110 -8 -22 -6 -23 52 -23 52 0 61 3 66
21 8 25 -2 39 -11 15 -4 -10 -17 -16 -35 -16 -24 0 -29 4 -29 25 0 16 6 25 15
25 8 0 15 -4 15 -10 0 -5 5 -10 10 -10 6 0 10 14 10 30 0 32 -14 40 -24 14 -8
-20 -26 -9 -26 17 0 22 38 27 58 7 9 -9 12 -7 12 10 0 20 -5 22 -61 22 -55 0
-60 -2 -53 -17z"/>
<path d="M953 572 c-29 -19 -43 -34 -43 -49 0 -21 -5 -23 -50 -23 -67 0 -133
-40 -128 -79 3 -23 0 -26 -25 -23 -15 2 -47 -6 -71 -18 -34 -16 -45 -27 -48
-50 -5 -34 -1 -36 48 -15 28 11 35 19 32 37 -3 20 2 23 34 26 31 3 37 0 32
-13 -5 -11 -2 -14 11 -9 10 4 30 34 45 66 l29 60 58 2 c32 2 75 6 95 10 35 8
37 10 40 50 l3 41 183 3 182 2 0 -30 c0 -16 5 -30 11 -30 6 0 9 14 7 33 l-3
32 -200 2 -200 2 -42 -27z m35 -34 c-2 -17 -11 -24 -30 -26 -34 -4 -36 10 -5
31 31 22 39 21 35 -5z m-218 -113 c0 -8 -2 -15 -4 -15 -2 0 -6 7 -10 15 -3 8
-1 15 4 15 6 0 10 -7 10 -15z m-130 -85 c0 -5 -7 -10 -16 -10 -8 0 -12 5 -9
10 3 6 10 10 16 10 5 0 9 -4 9 -10z"/>
<path d="M180 570 c-10 -7 16 -10 85 -12 98 -2 97 -2 -37 -7 -121 -5 -140 -9
-158 -26 -24 -24 -50 -139 -46 -205 1 -25 3 -69 4 -97 2 -49 4 -53 26 -53 14
0 28 -4 31 -10 8 -13 52 -13 60 0 8 13 152 13 160 0 3 -5 16 -10 28 -10 25 0
189 41 184 46 -2 2 -40 -2 -86 -10 l-82 -13 5 23 c4 13 1 26 -4 29 -14 9 -1
27 13 18 7 -3 3 3 -7 15 -11 12 -14 22 -9 22 20 0 35 -30 31 -59 -3 -20 0 -27
8 -24 8 3 9 15 4 37 -13 60 -28 69 -63 39 -16 -14 -19 -15 -15 -3 2 8 18 22
34 30 l29 15 -47 3 c-39 3 -48 7 -48 22 0 19 11 25 70 34 l35 5 -39 -13 c-53
-17 -57 -34 -10 -38 36 -3 39 -6 58 -61 14 -38 25 -56 34 -52 8 3 31 5 53 5
32 0 39 3 39 20 0 17 -7 20 -50 20 -43 0 -50 3 -50 20 0 18 7 20 70 20 53 0
70 3 70 14 0 9 -21 16 -67 22 -52 7 -69 13 -71 26 -3 15 8 18 85 20 98 3 94
11 -14 28 -61 10 -73 15 -73 31 0 15 5 18 23 15 12 -3 65 -8 117 -11 52 -4
106 -9 120 -12 14 -3 22 -3 19 1 -3 3 -44 13 -91 21 -167 29 -188 35 -188 56
0 10 2 19 4 19 18 0 245 -32 261 -37 11 -3 17 -2 14 1 -4 4 -75 25 -158 46
-127 34 -168 40 -249 40 -53 0 -104 -5 -112 -10z m223 -89 c-1 -39 1 -73 7
-76 6 -4 5 -13 -3 -25 -9 -16 -9 -24 1 -41 18 -28 7 -37 -18 -14 -14 13 -17
22 -10 35 6 11 5 21 -2 28 -9 9 -9 15 0 24 17 17 15 74 -4 93 -19 19 -11 45
14 45 17 0 18 -7 15 -69z m-88 41 c-26 -4 -28 -5 -10 -12 19 -8 19 -9 -2 -9
-14 -1 -23 5 -23 14 0 11 10 15 33 14 l32 -2 -30 -5z m-55 -82 l0 -50 -89 0
c-49 0 -96 -3 -105 -6 -18 -7 -21 19 -10 75 l7 31 98 0 99 0 0 -50z m100 25
c0 -14 1 -28 1 -32 2 -8 -31 -26 -67 -37 -19 -6 -21 -2 -22 44 l-1 50 45 0
c40 0 44 -2 44 -25z m-90 -92 c-1 -18 -19 -35 -29 -28 -9 5 -7 11 6 21 21 16
23 16 23 7z m-55 -33 c-3 -6 -42 -9 -88 -8 l-82 2 80 6 c44 3 84 7 88 8 5 1 5
-2 2 -8z m-165 -46 c0 -8 -4 -14 -10 -14 -5 0 -10 9 -10 21 0 11 5 17 10 14 6
-3 10 -13 10 -21z m155 16 c-3 -5 -39 -9 -78 -8 l-72 2 70 6 c39 4 74 7 78 8
5 1 5 -2 2 -8z m45 -10 c0 -11 -4 -20 -10 -20 -5 0 -10 9 -10 20 0 11 5 20 10
20 6 0 10 -9 10 -20z m44 -21 c-8 -13 -24 -1 -24 18 0 13 3 13 15 3 8 -7 12
-16 9 -21z m-101 0 c-9 -9 -29 -9 -75 -2 l-63 10 74 2 c57 1 72 -2 64 -10z
m-133 -44 c0 -8 -4 -15 -10 -15 -5 0 -10 7 -10 15 0 8 5 15 10 15 6 0 10 -7
10 -15z m124 -2 c3 -10 9 -24 12 -30 4 -9 -4 -13 -23 -13 -16 0 -33 -4 -39
-10 -6 -6 -19 -5 -36 4 -15 8 -30 11 -34 8 -4 -4 -4 0 0 8 3 8 9 23 12 33 9
25 99 25 108 0z m96 2 c0 -11 -11 -15 -40 -15 -38 0 -49 8 -33 23 3 4 21 7 40
7 23 0 33 -5 33 -15z m48 -9 c7 -32 -6 -48 -27 -37 -16 9 -18 14 -8 36 13 27
30 28 35 1z"/>
<path d="M1159 505 c-102 -12 -225 -35 -302 -56 -30 -8 -41 -18 -61 -57 -24
-47 -25 -48 -135 -87 -74 -27 -111 -45 -111 -55 0 -8 9 -30 20 -48 11 -18 18
-37 15 -43 -4 -5 5 -4 20 3 21 9 45 8 123 -6 154 -28 150 -28 127 -16 -14 7
19 9 112 7 127 -2 157 -8 112 -22 -11 -4 -18 -9 -16 -12 3 -2 18 2 34 10 49
25 91 27 192 11 54 -8 118 -14 142 -11 l44 4 -52 1 c-35 1 -53 6 -53 15 0 6
-14 32 -30 57 -40 59 -38 73 3 26 l32 -38 33 46 c19 26 45 54 58 63 34 22 104
121 98 138 -6 15 -74 46 -153 69 -63 19 -106 19 -252 1z m273 -32 c26 -8 48
-20 48 -25 0 -5 4 -7 9 -4 16 10 41 -5 41 -25 0 -23 -140 -177 -160 -175 -8 0
-23 10 -32 21 -16 19 -17 19 -35 2 -17 -17 -17 -19 10 -66 l27 -49 -27 5 c-16
3 -138 7 -273 9 -224 3 -275 6 -335 18 -11 3 -39 5 -62 5 -33 1 -45 6 -54 23
-9 17 -9 23 0 26 6 2 9 7 6 12 -3 5 32 21 77 36 104 34 124 47 149 96 20 39
21 39 44 24 25 -17 57 -21 68 -9 4 3 19 8 34 9 16 2 39 16 52 31 13 15 36 29
50 30 14 1 37 4 51 7 14 3 59 9 100 12 41 4 77 9 80 11 7 7 77 -6 132 -24z
m-432 -27 c0 -7 -11 -16 -25 -18 -29 -6 -36 18 -7 25 29 8 32 7 32 -7z m-65
-15 c-15 -14 -55 -23 -55 -13 0 15 12 22 39 22 15 0 21 -4 16 -9z"/>
<path d="M888 123 c7 -3 16 -2 19 1 4 3 -2 6 -13 5 -11 0 -14 -3 -6 -6z"/>
<path d="M943 103 c15 -2 39 -2 55 0 15 2 2 4 -28 4 -30 0 -43 -2 -27 -4z"/>
</g>
</svg>
